<svg width="18" height="19" viewBox="0 0 18 19" fill="none" xmlns="http://www.w3.org/2000/svg">
<path d="M2 0H4V3H2V0ZM6 0H8V3H6V0ZM10 0H12V3H10V0ZM16 7H14V6C14 5.73478 13.8946 5.48043 13.7071 5.29289C13.5196 5.10536 13.2652 5 13 5H1C0.734784 5 0.48043 5.10536 0.292893 5.29289C0.105357 5.48043 0 5.73478 0 6V16C0 16.7956 0.316071 17.5587 0.87868 18.1213C1.44129 18.6839 2.20435 19 3 19H11C11.7956 19 12.5587 18.6839 13.1213 18.1213C13.6839 17.5587 14 16.7956 14 16H16C17.103 16 18 15.103 18 14V9C18 7.897 17.103 7 16 7ZM14 14V9H16L16.002 14H14Z" fill="#393939"/>
</svg>
